<svg xmlns="http://www.w3.org/2000/svg" width="60" height="60" viewBox="0 0 60 60">
    <g fill="none" fill-rule="evenodd">
        <g>
            <g>
                <g>
                    <g>
                        <g>
                            <g>
                                <path fill="#000" d="M43.982 2.213c.24-.348.536-.523.887-.523.11-.022.416.01.92.097l7.49 1.571c.57.131.91.327 1.02.59.109.217.043.599-.198 1.145-.219.392-.34.61-.362.654-.285.393-.394.742-.328 1.048.022.305.208.643.56 1.014 2.693 2.967 4.347 6.655 4.96 11.062.526 3.469-.098 6.873-1.873 10.21-1.116 2.16-2.836 4.332-5.159 6.514-1.598 1.593-3.274 2.738-5.027 3.436-.175.087-.46.294-.854.622-.372.196-.712.054-1.019-.426l-.985.426c-.066.021-.406.175-1.019.458-.438.218-.854.349-1.248.393.24-.415.57-.775.985-1.08.482-.306.833-.546 1.052-.72 4.03-2.924 7.151-6.48 9.364-10.67.766-1.461 1.292-3.37 1.577-5.727.46-3.927-.526-7.527-2.958-10.8-.46-.567-.941-1.124-1.445-1.669-.46-.393-.833-.578-1.117-.557-.285.066-.58.36-.888.884-.087.13-.164.35-.23.655-.307.436-.668.643-1.084.621-.482-.087-.799-.36-.953-.818l-1.873-4.81c-.284-.655-.438-.994-.46-1.015-.394-.437-.525-.885-.394-1.342.045-.218.264-.632.659-1.243z" transform="translate(-1098 -178) translate(256 168) translate(26 10) translate(816) translate(0 8)"/>
                                <path fill="#D72B2F" d="M45.756 6.566c.438.982.756 1.811.953 2.487.197.567.536.633 1.018.197l.427-.59c.373-.61.68-.937.92-.981.198-.043.635.13 1.315.524.547.349 1.073.83 1.576 1.44.023.021.438.589 1.249 1.702 2.388 3.316 3.264 7.254 2.628 11.815-.547 4.123-2.595 8.007-6.144 11.65-.898.873-1.511 1.637-1.84 2.291.285.044.547 0 .789-.13.044-.044.208-.186.492-.425 1.687-1.484 2.684-2.39 2.99-2.717 3.11-3.076 4.907-6.425 5.389-10.047.789-5.87-.975-11.225-5.29-16.07-.263-.218-.45-.37-.559-.457-.197-.197-.295-.404-.295-.622.065-.175.197-.284.394-.327.175-.044.317-.099.427-.164.35-.088.526-.37.526-.85 0-.35-.219-.612-.657-.786-2.629-.743-4.808-1.255-6.539-1.539-1.007-.152-1.314.24-.92 1.179.067.107.45.914 1.15 2.42z" transform="translate(-1098 -178) translate(256 168) translate(26 10) translate(816) translate(0 8)"/>
                                <path fill="#000" d="M17.433 5.028c-.526.327-1.292.83-2.3 1.505-4.053 2.575-7.031 6.044-8.937 10.408-2.125 4.8-2.289 9.872-.493 15.218.219.633.405.993.559 1.08.131.043.57-.022 1.314-.197.197-.043.438-.142.723-.294.416-.24.668-.382.755-.426.614-.348 1.107-.414 1.479-.196.373.196.58.644.624 1.342.153 2.029.23 3.567.23 4.614 0 .371.088.906.263 1.604.219.764.34 1.352.362 1.767.022.436-.142.797-.493 1.08-.395.284-.843.349-1.347.197-.876-.306-1.983-.612-3.319-.917l-3.351-.687c-.68-.175-1.096-.306-1.249-.393-.614-.393-.734-.862-.361-1.407l.558-.753c.329-.502.515-.96.559-1.374.021-.458-.143-.97-.493-1.539-.504-.83-.943-1.843-1.314-3.043-.22-.676-.482-1.767-.789-3.273-.854-4.254-.383-8.411 1.413-12.469.547-1.243 1.533-2.749 2.957-4.516 2.826-3.579 6.013-6.404 9.561-8.477 2.98-1.68 6.714-2.967 11.205-3.86.372-.067.723.02 1.051.26.394.306.373.612-.066.917-.197.13-.427.196-.69.196-.964.043-2.004.306-3.121.786-.657.305-1.621.796-2.891 1.472-.68.328-1.479.786-2.399 1.375z" transform="translate(-1098 -178) translate(256 168) translate(26 10) translate(816) translate(0 8)"/>
                                <path fill="#D72B2F" d="M6.426 12.359c-3.636 3.993-5.367 8.487-5.192 13.483.066 1.462.395 3.11.986 4.943.329 1.047.887 2.606 1.676 4.68.11.305.306.533.591.687.548.261.613.73.197 1.407-.153.24-.405.589-.755 1.047-.241.437-.318.72-.23.852.044.152.317.283.821.392 1.424.306 2.508.546 3.253.72 1.314.328 2.453.743 3.417 1.244-.328-.764-.569-1.625-.723-2.585-.175-1.07-.295-1.866-.361-2.389l.033-1.473c.021-.589-.099-.981-.362-1.178-.263-.24-.657-.273-1.183-.098-.328.109-.8.261-1.412.458l-.362.066c-1.095.087-1.774-.306-2.037-1.178-.306-.917-.536-1.594-.69-2.03-.285-.807-.471-1.495-.559-2.061-.262-2.052-.35-3.84-.262-5.368.087-1.876.427-3.632 1.018-5.269.614-1.615.964-2.53 1.052-2.749.438-1.025.908-1.91 1.412-2.65.46-.612.8-1.07 1.019-1.376.372-.545.603-1.058.69-1.538-.438.087-.833.36-1.183.818-.197.261-.482.643-.854 1.145z" transform="translate(-1098 -178) translate(256 168) translate(26 10) translate(816) translate(0 8)"/>
                            </g>
                            <text fill="#000" font-family="Montserrat-Medium, Montserrat" font-size="12" font-weight="400" transform="translate(-1098 -178) translate(256 168) translate(26 10) translate(816) translate(0 8)">
                                <tspan x="10.434" y="22">RESET</tspan>
                            </text>
                        </g>
                    </g>
                </g>
            </g>
        </g>
    </g>
</svg>
