<?xml version="1.0" encoding="UTF-8"?>
<svg width="47px" height="28px" viewBox="0 0 47 28" version="1.1" xmlns="http://www.w3.org/2000/svg" xmlns:xlink="http://www.w3.org/1999/xlink">
    <!-- Generator: Sketch 58 (84663) - https://sketch.com -->
    <title>ind_clientvacancy</title>
    <desc>Created with Sketch.</desc>
    <g id="Symbols" stroke="none" stroke-width="1" fill="none" fill-rule="evenodd">
        <g id="ClientVacancyToggle" transform="translate(-4.000000, 0.000000)" fill="#000000" fill-rule="nonzero">
            <g id="noun_agreement_1321190" transform="translate(4.000000, 0.000000)">
                <path d="M30.0938547,0.954932632 C30.3312874,1.20914316 30.9327495,1.74298526 31.8987495,2.55645895 C32.6446032,3.18334211 33.1952232,3.75989158 33.5511179,4.28509053 C33.7544863,4.55607895 33.9837842,4.73402632 34.2379947,4.81893263 C35.2375505,5.10669895 35.7968137,5.25973368 35.9157842,5.27651158 C36.5426674,5.42903789 37.1019305,5.51394421 37.5935737,5.53072211 C38.0684389,5.53072211 38.3816263,5.52207895 38.5341526,5.50530105 C38.8564916,5.42039474 39.1107021,5.20889158 39.2967842,4.86977474 C39.3984684,4.66640632 39.6023453,4.56472211 39.9068895,4.56472211 C40.2460063,4.56472211 40.5002168,4.53930105 40.6695211,4.48845895 C41.1103221,4.38677474 41.6528074,4.32779789 42.2964684,4.31051158 C43.2965326,4.25966947 43.8385095,4.23424842 43.9234158,4.23424842 C44.2620242,4.23424842 44.4318368,4.36999684 44.4318368,4.64098526 C44.4318368,5.03094421 44.2706674,5.16618421 43.9488368,5.04772211 C43.7114042,4.94603789 43.4739716,4.94603789 43.2370474,5.04772211 C43.1185853,5.11534211 42.9319947,5.26837684 42.6777842,5.50530105 L40.8220474,7.03056421 C40.0085737,7.74235368 39.4833747,8.42872211 39.2459421,9.08966947 C39.0085095,9.75061684 38.9581758,10.6657747 39.0934158,11.8351432 C39.3308484,11.7675232 39.5764158,11.5641547 39.8306263,11.2250379 C40.0507726,10.8859211 40.2709189,10.6911958 40.4915737,10.6403537 C40.4402232,10.8610084 40.3217611,11.1233537 40.1356789,11.4284063 L39.6272579,12.1147747 C39.2372989,12.7081021 39.0593516,13.1656811 39.0934158,13.4875116 C39.1778137,14.1143947 39.2205211,15.0636168 39.2205211,16.3346695 C39.2205211,17.5889442 39.26272,18.5290147 39.3476263,19.1564063 C39.3984684,19.6139853 39.4747316,19.9444589 39.5764158,20.1478274 C39.7792758,20.5037221 40.0421295,20.7070905 40.3644684,20.7579326 C40.6695211,20.8255526 40.9659305,20.7070905 41.2542053,20.4020379 C42.1012347,19.4701021 42.7794684,18.8767747 43.2878895,18.6225642 C43.8639305,18.3515758 44.2366032,17.9361958 44.4064158,17.3769326 C44.5421642,16.6143011 44.6606263,16.0041958 44.7618021,15.5466168 L40.2622758,19.9190379 L40.2622758,19.5885642 C41.0584632,18.52088 41.6772116,17.7414705 42.1180126,17.2498274 C42.8292937,16.4195758 43.5497263,15.7413421 44.2788021,15.2161432 C44.5838547,14.9619326 44.7872232,14.7163653 44.8883989,14.4789326 C45.0068611,14.2415 44.9987263,13.9028916 44.8629779,13.4620905 C44.2869368,14.0040674 43.4226211,14.7753421 42.2700305,15.7754063 C41.2867442,16.6565 40.4819137,17.4364179 39.8550305,18.1141432 C39.7025042,17.9107747 39.6597968,17.7241842 39.7279253,17.55488 C39.7447032,17.4699737 39.8296095,17.3601547 39.9821358,17.2244063 C40.8632295,16.3433126 41.4057147,15.8176053 41.6090832,15.6483011 C42.1002179,15.2756284 42.6767674,14.7245 43.3372063,13.9959326 C44.1511884,13.0975526 44.6931653,12.5215116 44.9641537,12.2673011 C45.1675221,12.0639326 45.2773411,11.8437863 45.2946274,11.6063537 L45.5488379,9.16593263 C44.8873821,9.77603789 43.8791832,10.6317105 42.5237326,11.7334589 C41.3543642,12.7843653 40.4559842,13.7925642 39.8291011,14.7585642 C39.6760663,14.3518274 39.6847095,14.0045758 39.8545221,13.7163011 C39.9221421,13.5637747 40.1173758,13.3176989 40.4386979,12.9790905 C42.7779432,10.6403537 44.2010137,9.24219579 44.7094347,8.78461684 C45.4039379,8.14044737 45.5569726,7.34426 45.1670137,6.39503789 C44.8955168,6.5135 44.5223358,6.78499684 44.0484874,7.20851158 C43.6244642,7.63202632 43.2604347,7.87810211 42.9553821,7.94572211 C42.2776568,9.14915474 41.4636747,10.0216053 40.5149611,10.5640905 C41.0569379,9.46234211 41.8449905,8.56447053 42.8791189,7.86945895 C42.9467389,7.64880421 43.0992653,7.42052316 43.3361895,7.18309053 C43.6239558,6.96243579 43.8278326,6.78499684 43.9462947,6.64924842 C44.4038737,6.12404947 44.6326632,5.85306105 44.6326632,5.83577474 C44.8533179,5.47988 44.8782305,5.03907895 44.7089263,4.51388 C46.0648853,5.68324842 46.6322832,7.22528947 46.4121368,9.14051158 C46.0567505,12.2759442 45.8106747,14.2582779 45.6754347,15.0890379 C45.4888442,16.1567221 45.2427684,17.7750263 44.9382242,19.9444589 C44.8197621,20.6054063 44.6245284,21.0629853 44.35354,21.3171958 C44.0657737,21.5714063 43.5654874,21.7325758 42.8536979,21.8001958 C42.0234463,21.8678158 41.1337095,21.7915526 40.1844874,21.5714063 C39.1340895,21.3171958 38.5488968,20.7833537 38.4309432,19.96988 C38.3968789,19.6816053 38.2865516,19.5036579 38.1004695,19.4360379 C37.9647211,19.4019737 37.7445747,19.4273947 37.4395221,19.5123011 C35.6432705,20.0542779 34.3376453,20.9191021 33.52468,22.1052484 C32.8805105,23.1048042 32.0843232,23.4612074 31.1351011,23.1729326 C30.7115863,23.0712484 30.42382,23.2578389 30.2707853,23.7321958 C29.9997968,24.5116053 29.8218495,24.9696926 29.7369432,25.1049326 C29.4995105,25.6301316 29.2371653,26.0622895 28.9488905,26.4014063 C27.9152705,27.4858684 26.8048789,27.8671842 25.6187326,27.5453537 C24.4493642,27.2575874 23.5850484,27.0115116 23.0252768,26.8081432 C22.3307737,26.5707105 21.5681421,26.3673421 20.7373821,26.1980379 C18.2120547,25.6387747 16.1702358,24.7236168 14.6109084,23.4525642 C13.8314989,22.8083947 13.4501832,22.0966053 13.4669611,21.3171958 C13.5005168,20.7070905 13.2976568,20.3425526 12.8568558,20.2240905 C12.75568,20.2073126 12.4419842,19.9358158 11.9162768,19.4106168 C11.5939379,19.0547221 11.2044874,19.0206579 10.7469084,19.3089326 C10.61116,19.3765526 10.4164347,19.3851958 10.1622242,19.3343537 C9.50127684,19.2494474 9.09454,19.2494474 8.94252211,19.3343537 C8.82406,19.41926 8.68831158,19.7919326 8.53527684,20.45288 C8.41681474,21.0462074 8.27242316,21.41888 8.10311895,21.5714063 C7.93381474,21.7239326 7.56114211,21.8088389 6.98459263,21.8256168 C5.47610737,21.8256168 4.28182632,21.7152895 3.40022421,21.4951432 C2.34982632,21.2749968 1.64617158,20.5967632 1.29027684,19.4614589 C1.05284421,18.7496695 0.908961053,17.8431547 0.858118947,16.7414063 C0.841341053,15.5044179 0.807276842,14.58926 0.756434737,13.9959326 C0.654750526,12.8606284 0.68068,11.4197632 0.832697895,9.67435368 C1.00200211,7.26799684 1.09555158,5.83577474 1.11232947,5.37819579 C1.11232947,4.61556421 1.40873895,4.46303789 2.00206632,4.92061684 C2.30711895,5.22566947 2.62081474,5.29328947 2.94264526,5.12398526 C3.40022421,4.85299684 3.91728842,4.71724842 4.49383789,4.71724842 C4.78160421,4.71724842 5.32408947,4.78486842 6.12027684,4.92061684 C6.57785579,5.03907895 6.92561579,5.11534211 7.16304842,5.14940632 C7.55300737,5.23431263 7.89975053,5.26786842 8.20531158,5.25109053 C8.52714211,5.25109053 8.84948105,5.36141789 9.17080316,5.58156421 C9.34061579,5.70002632 9.58618316,5.92881579 9.90801368,6.26793263 C10.5181189,6.06456421 11.1622884,6.03100842 11.8400137,6.16624842 C12.3148789,6.26793263 12.7465284,6.31877474 13.1369958,6.31877474 C14.1197737,6.31877474 14.8569842,5.97965789 15.3486274,5.30193263 C16.6364579,3.67498526 17.58568,2.45477474 18.1957853,1.64130105 C18.5684579,1.16643579 18.9584168,0.844605263 19.3656621,0.675301053 C19.7891768,0.505996842 20.3062411,0.471932632 20.9163463,0.573616842 C22.3231474,0.811049474 23.4498084,1.38709053 24.2968379,2.30224842 C24.4325863,2.48883895 24.5424053,2.62407895 24.6273116,2.70898526 C24.76306,2.82744737 24.9237211,2.92099684 25.1103116,2.98861684 C25.2796158,2.83609053 25.6355105,2.43799684 26.1779958,1.79382737 C26.6187968,1.30218421 27.0423116,0.946289474 27.4490484,0.726143158 C28.5518137,0.149593684 29.4334158,0.225856842 30.0938547,0.954932632 Z M31.5687842,3.39535368 C30.56872,2.54781579 29.9753926,2.01397368 29.7893105,1.79382737 C29.0434568,1.03119579 28.2381179,1.00577474 27.3743105,1.71756421 C26.7474274,2.20920737 26.2130768,2.86151158 25.7727842,3.67498526 C25.4001116,4.36999684 24.9252463,5.15804947 24.3492053,6.03914316 C23.9933105,6.54756421 23.4681116,7.31019579 22.7725916,8.32703789 C22.6714158,8.47956421 22.4080537,8.81003789 21.9845389,9.31845895 C21.6286442,9.70841789 21.3825684,10.0556695 21.2473284,10.3607221 C20.9254979,10.8350789 21.0190474,11.1996168 21.5274684,11.4538274 C21.9342053,11.6571958 22.2560358,11.7675232 22.49296,11.7843011 C24.9166032,11.8519211 26.8567379,11.0216695 28.3143811,9.29303789 C28.83958,8.66615474 29.6362758,7.50492105 30.70396,5.81035368 C30.9241063,5.45445895 31.1610305,5.32735368 31.4152411,5.42903789 C31.5850537,5.53072211 31.5936968,5.75086842 31.4411705,6.08998526 C31.25458,6.49672211 31.1610305,6.70822526 31.1610305,6.72551158 C31.1274747,6.94565789 31.2372937,7.12360526 31.4915042,7.25935368 C32.0848316,7.58118421 32.7961126,8.16586842 33.6268726,9.01340632 C34.5755863,9.96262842 35.25382,10.5895116 35.6605568,10.8945642 C36.21982,11.2845232 36.6346916,11.5977105 36.9061884,11.8351432 C37.3805453,12.2251021 37.7699958,12.6486168 38.0755568,13.1061958 C38.1599547,10.5640905 38.2784168,8.65751158 38.4314516,7.38645895 C38.5158495,6.89481579 38.5072063,6.58162842 38.4055221,6.44588 C38.28706,6.27657579 37.9987853,6.19166947 37.5417147,6.19166947 C36.8467032,6.17489158 35.8552821,6.06456421 34.5669432,5.86119579 C33.8892179,5.81035368 33.4229958,5.57292105 33.1687853,5.14940632 C32.8479716,4.62420737 32.3141295,4.03901474 31.5687842,3.39535368 Z M9.90953895,6.26793263 C9.90953895,6.30199684 9.92631684,6.31877474 9.96088947,6.31877474 C9.92682526,6.60704947 9.90140421,7.39510211 9.88462632,8.68293263 C9.86784842,9.64893263 9.81649789,10.4456284 9.7321,11.0725116 C9.71532211,11.2418158 9.65583684,11.4792484 9.55364421,11.7843011 C9.50280211,12.0893537 9.56228737,12.3435642 9.7321,12.5469326 C10.0030884,12.4284705 10.3930474,12.1061316 10.9014684,11.5809326 C11.3417611,11.0892895 11.7576495,10.8015232 12.1471,10.7166168 C10.8246968,12.0893537 10.1469716,12.8179211 10.1134158,12.9028274 C9.46924632,13.8012074 9.20690105,14.7753421 9.32536316,15.8262484 C9.85056211,15.62288 10.3249189,15.2837632 10.7489421,14.8094063 L12.5792579,12.6486168 C12.7485621,12.4620263 12.8848189,12.3435642 12.9859947,12.2927221 C13.1725853,12.2078158 13.3840884,12.2505232 13.6215211,12.4198274 C13.2661347,12.9450263 12.7912695,13.5129326 12.1979421,14.1230379 C11.8761116,14.4789326 11.3595558,14.9787105 10.6472579,15.62288 L9.42704737,16.7159853 C9.05437474,17.1395 9.00353263,17.6057221 9.27452105,18.1141432 C9.39298316,18.3342895 9.58008211,18.4278389 9.83429263,18.3937747 C10.1220589,18.3261547 10.3427137,18.2666695 10.49524,18.2158274 C10.6813221,18.1822716 10.8679126,18.0633011 11.0545032,17.8599326 C11.2578716,17.6565642 11.4103979,17.5040379 11.5120821,17.4023537 C12.1221874,16.7754705 12.5879011,16.3178916 12.91024,16.0296168 C13.4522168,15.4871316 13.9606379,15.0636168 14.4355032,14.7585642 C14.7064916,14.6228158 14.8503747,14.5551958 14.8676611,14.5551958 C15.0369653,14.4875758 15.2067779,14.5297747 15.3760821,14.6823011 L12.5543453,17.1227221 C12.4526611,17.2076284 12.2833568,17.3347337 12.0459242,17.5040379 C11.87662,17.6733421 11.8252695,17.8517979 11.8933979,18.03788 C11.9610179,18.2412484 12.1476084,18.3769968 12.4526611,18.4446168 C12.8593979,18.5295232 13.1049653,18.5971432 13.1898716,18.6479853 C13.2747779,18.7156053 13.3678189,18.6988274 13.4695032,18.5971432 C13.6052516,18.4446168 13.7069358,18.3429326 13.7750642,18.2920905 L14.7919063,17.1735642 C14.9444326,16.9701958 15.1050937,16.9107105 15.2743979,16.9956168 C15.3593042,17.0632368 15.3760821,17.1989853 15.3257484,17.4023537 C15.2408421,17.5716579 15.2743979,17.6987632 15.4274326,17.7836695 C15.6643568,17.6143653 15.9185674,17.3174474 16.1900642,16.8939326 C16.5286726,16.4190674 16.7661053,16.10588 16.9013453,15.9533537 C17.122,15.6483011 17.2913042,15.4195116 17.4097663,15.2669853 C17.6131347,14.9959968 17.8759884,14.8602484 18.1978189,14.8602484 L19.1638189,14.7585642 C19.5364916,14.7417863 19.8583221,14.7753421 20.1298189,14.8602484 L22.1121526,15.5211958 C24.7900063,16.3855116 26.6792989,17.1481432 27.7810474,17.8090905 C28.2381179,18.0633011 28.5858779,18.2412484 28.8233105,18.3429326 C29.2468253,18.4954589 29.6708484,18.5549442 30.0943632,18.52088 C30.9754568,18.4700379 31.9922989,18.9530379 33.1448895,19.96988 C33.3141937,20.0883421 33.3055505,20.2662895 33.1194684,20.5037221 C33.0177842,20.6903126 32.84848,20.7325116 32.6110474,20.6308274 C32.5429189,20.6140495 32.3227726,20.4869442 31.9501,20.2495116 C31.6958895,20.0802074 31.4503221,20.0125874 31.2128895,20.0461432 C31.2128895,20.6054063 31.2128895,20.8936811 31.2128895,20.9104589 C31.1788253,21.2495758 31.1025621,21.5459853 30.9841,21.8001958 C30.8147958,22.1220263 30.9586789,22.3086168 31.4162579,22.3594589 C31.9079011,22.4103011 32.3059947,22.2491316 32.6115558,21.8764589 L34.6706611,19.3343537 C34.8399653,19.1309853 34.9416495,18.9530379 34.9757137,18.8005116 C34.9924916,18.6139211 34.8913158,18.4105526 34.6706611,18.1904063 C34.3828947,17.9194179 33.9670063,17.48726 33.4250295,16.8939326 C32.9333863,16.4363537 32.4676726,16.0718158 32.0268716,15.8008274 L31.0100295,15.1144589 C30.7390411,14.8770263 30.6800642,14.65688 30.8320821,14.4535116 C30.9678305,14.1993011 31.1706905,14.1571021 31.4421874,14.3264063 L32.0777137,14.7585642 C33.26386,15.5379737 34.2293516,16.3260263 34.9752053,17.1227221 C35.2975442,17.5635232 35.6275095,17.6479211 35.9666263,17.3769326 C36.3901411,16.9701958 36.7038368,16.3768684 36.9077137,15.5974589 C37.1105737,14.8180495 37.12786,14.1571021 36.9585558,13.6146168 C36.8228074,13.1911021 36.6789242,12.9623126 36.5263979,12.9282484 C36.3901411,12.8606284 36.1450821,12.9282484 35.7891874,13.1316168 L34.4418716,14.1484589 C34.5267779,13.7249442 34.7642105,13.2251663 35.1536611,12.6486168 C35.3397432,12.4111842 35.4165147,12.2078158 35.3824505,12.0385116 C35.3311,11.9027632 35.2039947,11.7248158 35.0011347,11.5046695 C34.78048,11.3353653 34.5938895,11.27588 34.4413632,11.3267221 C34.3056147,11.3435 34.1449537,11.4451842 33.9583632,11.6317747 C33.2297958,12.2586579 32.7889947,12.6231958 32.6364684,12.72488 C32.1112695,13.1316168 31.6109832,13.4280263 31.1366263,13.6146168 L33.7300821,10.79288 C33.3228368,10.0810905 32.9842284,9.73383895 32.71324,9.75061684 C32.6115558,9.78468105 32.2637958,10.0302484 31.6704684,10.4878274 C31.2977958,10.79288 30.7975095,11.3435 30.1711347,12.1401958 C30.1030063,12.2078158 30.0181,12.3267863 29.9169242,12.4960905 C29.7984621,12.5977747 29.6286495,12.5723537 29.4085032,12.4198274 C29.5610295,11.9790263 30.0013221,11.3943421 30.7303979,10.6657747 L31.9760295,9.36930105 C32.1788895,9.14915474 32.1707547,8.92036526 31.9506084,8.68293263 C31.7807958,8.47956421 31.5601411,8.47092105 31.2891526,8.65751158 L29.9926789,9.87772211 C29.2300474,10.6403537 28.4084389,11.4029853 27.5268368,12.1656168 C27.3570242,12.0807105 27.3061821,11.9454705 27.3743105,11.75888 C27.4587084,11.5722895 27.4078663,11.4370495 27.2212758,11.3521432 L26.3061179,11.8351432 C24.5602,12.5637105 23.0181589,12.7503011 21.6794863,12.3944063 C20.7811063,12.1569737 20.2386211,11.7756579 20.0525389,11.2504589 C19.8659484,10.6911958 20.0860947,10.0978684 20.7134863,9.47098526 C21.2732579,8.9285 21.8996326,8.15773368 22.5946442,7.15766947 C23.4930242,5.81899684 24.0604221,5.00552316 24.2978547,4.71724842 C24.6537495,4.31051158 24.6791705,3.95461684 24.3741179,3.64956421 C23.6623284,2.98861684 23.1284863,2.53103789 22.7725916,2.27682737 C22.1629947,1.83602632 21.5356032,1.56503789 20.8919421,1.46335368 C19.9259421,1.29404947 19.2136442,1.52283895 18.7565737,2.14972211 C18.5699832,2.40393263 18.1296905,2.94590947 17.4341705,3.77666947 C16.8749074,4.43761684 16.4600358,4.99688 16.1890474,5.45445895 C15.5275916,6.60704947 14.6637842,7.17444737 13.5955916,7.15766947 C13.0536147,7.14089158 12.2569189,7.06462842 11.2060126,6.92888 C10.7489421,6.91210211 10.3330537,6.70822526 9.96088947,6.31877474 L9.96088947,6.26793263 L9.90953895,6.26793263 L9.90953895,6.26793263 Z M30.2718021,7.99656421 L28.5685916,10.2336168 C28.9412642,10.0643126 29.3312232,9.79281579 29.73796,9.42014316 C30.1446968,8.96256421 30.4670358,8.62344737 30.70396,8.40330105 C30.8732642,8.23399684 30.8819074,8.07282737 30.7293811,7.92030105 C30.5600768,7.76777474 30.4075505,7.79319579 30.2718021,7.99656421 Z M39.7289421,7.33561684 L41.9914158,5.22566947 C40.9232232,5.25973368 40.2627842,5.40361684 40.0085737,5.65782737 C39.7370768,5.91203789 39.6440358,6.47130105 39.7289421,7.33561684 Z M42.8298021,19.7410905 C42.4398432,20.0802074 42.1185211,20.4361021 41.8643105,20.8087747 C42.8638663,20.8596168 43.4653284,20.7752189 43.6692053,20.5545642 C43.9066379,20.3511958 44.0251,19.7919326 44.0251,18.8767747 C43.3977084,19.3170674 42.9991063,19.6053421 42.8298021,19.7410905 Z M37.7710126,15.6483011 C37.5508663,16.2243421 37.3810537,16.6310789 37.2625916,16.8685116 C37.1100653,17.1227221 36.8558547,17.4953947 36.49996,17.9870379 C36.2121937,18.4613947 36.0256032,18.8935526 35.9406968,19.2835116 C36.9239832,18.9443947 37.4324042,18.7664474 37.46596,18.7496695 C38.1101295,18.5463011 38.4065389,18.1055 38.3556968,17.4277747 L38.3556968,14.4535116 C38.1863926,14.7245 37.9916674,15.1225937 37.7710126,15.6483011 Z M27.0433284,18.52088 C26.9248663,18.2331137 26.5181295,17.9448389 25.8231179,17.6565642 C25.1453926,17.4023537 24.7218779,17.2330495 24.5520653,17.1481432 C23.9760242,16.8430905 23.5692874,17.0210379 23.3323632,17.6819853 C23.1625505,18.1395642 22.7898779,18.9530379 22.2138368,20.1224063 C21.6886379,21.1565347 21.3495211,21.9954295 21.1969947,22.6390905 C21.1802168,22.7748389 21.0612463,22.9782074 20.8411,23.2491958 C20.5192695,23.5710263 20.2569242,23.6305116 20.0530474,23.4271432 C19.8837432,23.2746168 19.8837432,23.0544705 20.0530474,22.7661958 L21.1461526,20.6308274 C21.8071,19.2580905 22.2728137,18.2158274 22.5443105,17.5040379 C22.7136147,17.0632368 22.7471705,16.7500495 22.6454863,16.5634589 C22.5443105,16.3768684 22.2641705,16.2162074 21.8071,16.0804589 C21.6372874,16.0463947 21.2473284,15.9787747 20.6377316,15.8770905 C20.1628663,15.7921842 19.7734158,15.6991432 19.4678547,15.5974589 C18.8918137,15.3940905 18.3666147,15.5379737 17.8917495,16.0296168 C17.4168842,16.4704179 16.9511705,17.0296811 16.4935916,17.7074063 C16.4086853,17.8431547 16.0187263,18.45326 15.3242232,19.5377221 C15.0018842,20.0293653 14.7817379,20.4783011 14.6632758,20.8850379 C14.4426211,21.6817337 14.5951474,22.1982895 15.1203463,22.4357221 C15.3913347,22.5714705 15.6201242,22.5460495 15.8072232,22.3594589 C15.9933053,22.0544063 16.1458316,21.8510379 16.2642937,21.7493537 C16.55206,21.3934589 16.7813579,21.1224705 16.9511705,20.93588 C17.2221589,20.6481137 17.5353463,20.4950789 17.8917495,20.4783011 C17.7224453,20.7492895 17.2308021,21.3680379 16.4173284,22.3340379 C15.9938137,22.7407747 15.9516147,23.0880263 16.2902232,23.3763011 C16.5444337,23.5964474 16.7396674,23.7235526 16.8749074,23.7576168 C17.1291179,23.8252368 17.3746853,23.7403305 17.6121179,23.5034063 L18.5018547,22.7407747 C18.9253695,22.4189442 19.1460242,22.2491316 19.1628021,22.2323537 C19.4505684,22.0798274 19.7983284,22.0376284 20.2050653,22.1052484 L17.7646442,23.9609853 C18.5104979,24.6895526 19.4170126,25.0795116 20.4846968,25.1303537 C20.7902579,25.1644179 21.0948021,25.0032484 21.4003632,24.6473537 C21.6881295,24.2065526 21.9255621,23.9015 22.1116442,23.7321958 L22.2901,23.5034063 C22.49296,23.2827516 22.6622642,23.2319095 22.7985211,23.35088 C22.9846032,23.5034063 22.9764684,23.7235526 22.7725916,24.0118274 C22.7049716,24.1135116 22.49296,24.2914589 22.1370653,24.5456695 C21.8660768,24.7831021 21.6881295,25.0118916 21.6032232,25.2320379 L23.4081179,25.8929853 L23.8407842,25.9946695 C24.1458368,26.0282253 24.42496,25.9438274 24.6791705,25.7404589 C24.9501589,25.5370905 25.0269305,25.3169442 24.90796,25.0795116 C24.7386558,24.7576811 24.7051,24.4353421 24.8062758,24.1135116 C24.9593105,23.7408389 25.0772642,23.4525642 25.1621705,23.2491958 C25.3487611,22.8256811 25.8658253,21.7574884 26.7128547,20.0461432 C27.0519716,19.3343537 27.1622989,18.8259326 27.0433284,18.52088 Z M24.8062758,26.4014063 L26.0519074,26.5793537 C27.1201,26.6810379 27.9584863,26.2829442 28.5685916,25.3845642 C28.9244863,24.8425874 29.3312232,23.9864063 29.7888021,22.8170379 C30.2290947,21.6308916 30.3562,20.8428389 30.1701179,20.45288 C30.0003053,20.0461432 29.2971589,19.5545 28.0601705,18.9784589 C27.7042758,19.5209442 27.3397379,20.2240905 26.9670653,21.0884063 C26.7642053,21.5795411 26.4586442,22.31726 26.0519074,23.3000379 C25.8658253,23.7067747 25.7890537,24.0880905 25.8231179,24.4439853 C25.8231179,25.2233947 25.4845095,25.8756989 24.8062758,26.4014063 Z M2.05443368,6.44588 L1.77480211,9.01340632 C1.97817053,9.03018421 2.18967368,8.94578632 2.41032842,8.75919579 C2.61369684,8.58989158 2.77486632,8.49634211 2.89332842,8.47956421 C3.04585474,8.15773368 3.29142211,7.84403789 3.63053895,7.53898526 C4.07083158,7.18309053 4.39317053,6.90345895 4.59603053,6.70009053 C4.81668526,6.49672211 4.94379053,6.36961684 4.97734632,6.31877474 C5.11309474,6.16624842 5.15580211,6.00507895 5.10445158,5.83577474 C4.98598947,5.5475 4.63873789,5.42039474 4.06218842,5.45445895 C3.94372632,5.48801474 3.45208316,5.60698526 2.58827579,5.81035368 C2.26644526,5.87797368 2.08849789,6.08998526 2.05443368,6.44588 Z M1.64769684,11.9876695 L1.74938105,16.7668274 C1.78293684,17.0886579 1.92732842,17.2920263 2.18153895,17.3769326 C4.62246842,14.3096284 6.74055053,11.9454705 8.53680211,10.2844589 C8.68983684,10.1487105 8.78236947,10.0388916 8.81694211,9.95398526 C9.25723474,9.08966947 9.24045684,8.38652316 8.76559158,7.84403789 L6.52904737,9.87772211 C6.47769684,9.94534211 6.14773158,10.2931021 5.53762632,10.9199853 C5.13088947,11.3099442 4.78363789,11.6231316 4.49536316,11.860556 C4.37690105,11.9622484 4.07134,12.3354295 3.57969684,12.9790905 C3.22431053,13.5042895 2.80842211,13.8266284 2.33457368,13.9450905 C2.92739263,12.8265642 3.59647474,11.9027632 4.34232842,11.1741958 C5.90165579,9.69977474 7.23219368,8.41143579 8.33394211,7.31019579 C8.53680211,7.10682737 8.65577263,6.96243579 8.68983684,6.87803789 C8.80779053,6.69144737 8.80779053,6.48807895 8.68983684,6.26793263 C8.50324632,5.99694421 8.14735158,5.86119579 7.62164421,5.86119579 C6.80817053,5.84441789 6.01147474,6.15760526 5.23206526,6.80177474 C4.97785474,7.02192105 4.63060316,7.36968105 4.18980211,7.84403789 C3.76628737,8.25077474 3.35141579,8.47956421 2.94417053,8.53040632 C2.91061474,8.78461684 2.80842211,8.98798526 2.63911789,9.14051158 C1.97867895,9.73333053 1.64769684,10.6825526 1.64769684,11.9876695 Z M8.91811789,11.1741958 L8.53680211,11.2250379 C7.06288947,12.5469326 5.04598316,14.6909442 2.4871,17.6565642 C2.09714105,18.0973653 1.98732211,18.6139211 2.15662632,19.2072484 C2.32593053,19.8005758 2.69046842,20.2327337 3.24973158,20.5037221 C3.82577263,20.6562484 4.24979579,20.7919968 4.52078421,20.9104589 C5.01242737,21.0797632 5.31697158,20.9104589 5.43594211,20.4020379 C5.63931053,19.5036579 6.34245684,18.6225642 7.54588947,17.7582484 C8.00296,17.4023537 8.27445684,16.9869737 8.35936316,16.5126168 C8.44426947,16.10588 8.37614105,15.5806811 8.15599474,14.9365116 C6.27534526,16.5802368 4.98700632,18.0719442 4.29199474,19.4106168 C4.17353263,18.93626 4.13133368,18.6225642 4.16488947,18.4700379 C4.18166737,18.3175116 4.29199474,18.1060084 4.49536316,17.8345116 C5.64795368,16.3768684 6.70699474,15.3178274 7.67299474,14.65688 C7.99482526,14.4026695 8.21497158,14.2079442 8.33394211,14.0721958 C8.55408842,13.8347632 8.65577263,13.5551316 8.63899474,13.2333011 C8.63848632,12.5382895 8.73203579,11.8519211 8.91811789,11.1741958 Z M13.7740474,19.2835116 C13.6891411,19.4360379 13.73134,19.5631432 13.9011526,19.6648274 C14.0872347,19.7497337 14.21434,19.7156695 14.2824684,19.5631432 C14.3500884,19.4782368 14.5702347,19.0547221 14.9434158,18.2920905 C14.4517726,18.3597105 14.0618137,18.6901842 13.7740474,19.2835116 Z M6.91036316,20.93588 C7.26574947,20.9699442 7.50318211,20.86826 7.62164421,20.6308274 C8.11328737,19.6480495 8.21497158,18.8091547 7.92720526,18.1141432 C7.04611158,18.8427105 6.35059158,19.7324474 5.84217053,20.7833537 C6.46956211,20.8850379 6.82545684,20.93588 6.91036316,20.93588 Z" id="ind_clientvacancy"></path>
            </g>
        </g>
    </g>
</svg>