<svg xmlns="http://www.w3.org/2000/svg" width="60" height="60" viewBox="0 0 60 60">
    <g fill="none" fill-rule="evenodd">
        <g>
            <g>
                <g>
                    <g>
                        <g>
                            <path fill="#F9F9F9" fill-rule="nonzero" d="M43.475 7.302c-.221-.2-.52-.388-.896-.566-.442-.178-.762-.333-.961-.466-1.415-.8-3.105-1.422-5.073-1.866-1.016-.222-2.807-.511-5.371-.867-.818-.088-2.056.067-3.714.467-.442.111-.729.166-.862.166-.397 0-.64-.133-.729-.4-.066-.244.066-.477.398-.7.817-.488 1.614-.732 2.387-.732 1.26-.045 2.089-.045 2.487 0 1.967.288 3.437.511 4.41.666 1.68.311 3.116.667 4.31 1.066 2.541.845 4.696 2.322 6.465 4.432 1.348 1.621 2.641 3.865 3.88 6.73.154.356.33.9.53 1.633.22.733.409 1.266.563 1.6.752 1.777 1.205 3.753 1.36 5.93.132 1.667.088 3.688-.133 6.065-.066.733-.331 1.566-.796 2.499-.088.222-.53 1.01-1.326 2.366-1.26 2.154-3.138 4.198-5.636 6.13-.796.622-1.79 1.278-2.984 1.966-.707.4-1.746.978-3.117 1.733-.84.511-1.824.866-2.95 1.066-.775.133-1.836.245-3.184.333-2.409.156-5.006.1-7.791-.166-1.128-.089-2.233-.456-3.316-1.1-1.878-1.177-3.415-2.32-4.609-3.432-1.458-1.4-2.619-2.91-3.48-4.531-.288-.511-.83-1.366-1.625-2.566-.708-1.066-1.227-1.944-1.559-2.632-1.57-3.443-2.122-7.042-1.658-10.796.707-5.264 3.449-9.84 8.223-13.728 1.724-1.376 4.1-2.699 7.128-3.965.266-.133.431-.2.498-.2.287-.066.497-.1.63-.1.22.045.353.178.398.4.088.245.033.433-.166.567-.022 0-.221.066-.597.2-4.443 1.444-8.024 3.91-10.742 7.397-2.1 2.71-3.482 5.786-4.145 9.23-.044.421 0 .721.133.899.22-.044.486-.21.796-.5.31-.355.585-.578.828-.666.089.31.022.577-.199.8-.066.044-.253.177-.563.4-.929.599-1.293 1.532-1.094 2.798.066.356.132.933.199 1.733.464-.134 1.06-.578 1.79-1.333.663-.71 1.304-1.133 1.923-1.266-.199.444-.509.855-.928 1.233-.244.221-.619.51-1.128.866-.994.822-1.513 1.421-1.558 1.8-.044.376.298 1.199 1.028 2.465L13.8 27.56c.221.2.299.388.232.566 0 .044-.1.167-.298.367l-2.089 2c-.575.51-.641 1.02-.199 1.532.2.244.564.766 1.094 1.566.244 0 .486-.155.73-.467.265-.31.52-.455.762-.433.155.134.188.255.1.367l-.265.366c-.465.533-.697.889-.697 1.067-.022.2.166.577.564 1.132l1.99 2.866c.309-.133.717-.467 1.226-1 .486-.488.928-.81 1.326-.966-.044.4-.243.744-.596 1.033l-.763.666c-.287.312-.442.6-.464.867-.022.266.1.555.364.866l.233.267c.707.844 1.182 1.266 1.425 1.266.244.022.752-.345 1.525-1.1.398-.422.697-.733.896-.933.376-.378.762-.61 1.16-.7.11.222.122.422.033.6l-.331.333c-.332.29-.83.711-1.492 1.267-.155.155-.42.366-.796.633-.22.289-.121.61.298.966.53.511.973.778 1.327.8.375.022.784-.178 1.226-.6l3.216-3.099.299-.3c.154-.088.287-.066.398.067.177.155.22.29.132.4-.066.044-.187.133-.364.266-.244.245-.984.933-2.222 2.066-.088.067-.21.178-.365.333-.044.045-.31.3-.795.767-.31.266-.365.577-.166.933.265.4.796.633 1.591.7.774.088 1.327-.034 1.658-.367 1.547-1.555 2.962-2.854 4.244-3.899.199-.133.365-.166.497-.1-.132.422-.43.833-.895 1.233-.243.245-.63.578-1.16 1-.464.488-1.172 1.266-2.122 2.332 1.57.378 2.984.456 4.244.233-.088-.421-.044-.777.132-1.066.663-.844 1.945-2.154 3.846-3.932.177.245.244.456.2.634-.023.066-.133.188-.332.366l-2.852 2.766c-.464.466-.718.91-.762 1.332 2.21.267 4.023-.566 5.437-2.499.774-1.066 1.614-1.766 2.52-2.099-.375.6-.928 1.278-1.658 2.033-1.105 1.133-1.735 1.788-1.89 1.966.907.044 1.647-.067 2.222-.334.53-.244 1.04-.71 1.525-1.399.464-.666.862-1.166 1.194-1.5.53-.488 1.149-.844 1.856-1.066-.154.4-.508.833-1.06 1.3-.553.466-.884.9-.995 1.3C45.53 40.233 49.232 36.267 51 31.225c.331-.977.497-2.388.497-4.231-.022-1.711-.1-3.1-.232-4.165-.199-1.533-.552-2.9-1.06-4.099-.023-.088-.366-1.077-1.029-2.965-.442-1.178-.873-2.121-1.293-2.832-1.348-2.266-2.818-4.143-4.41-5.632zm-6.797-5.464c-3.692-1-7.505-.933-11.439.2-3.095.866-5.935 2.221-8.521 4.065-1.503 1.022-3.062 2.399-4.675 4.132-1.746 1.844-2.95 3.443-3.614 4.798-2.011 3.976-2.62 8.041-1.823 12.195.265 1.488.74 3.11 1.425 4.864.42 1.133 1.083 2.7 1.99 4.699 2.299 4.864 5.747 8.33 10.344 10.395 1.503.755 2.586 1.267 3.25 1.533 1.149.511 2.022.722 2.619.633 2.94-.178 5.426-.444 7.46-.8 2.299-.4 4.42-.977 6.366-1.732 4.2-1.688 7.58-4.42 10.145-8.197 1.592-2.332 2.697-5.12 3.316-8.363.42-2.2.618-4.598.597-7.197 0-1.2-.2-2.466-.597-3.799-.022-.111-.045-.2-.067-.266-.331-1.022-.84-2.3-1.525-3.832-1.614-3.554-3.68-6.575-6.2-9.063-1.172-1.178-2.707-2.188-4.608-3.032-.951-.422-2.432-.833-4.443-1.233zm17.837 16.793c.53 1.622.774 3.799.73 6.53-.155 3.955-.73 7.21-1.724 9.764-.022.066-.055.155-.1.266-1.746 4.177-4.299 7.453-7.659 9.83-4.244 3.021-9.46 4.854-15.65 5.497-3.646.4-6.642-.1-8.984-1.499-.244-.155-.83-.444-1.758-.866-.75-.312-1.326-.633-1.724-.967-.243-.2-.486-.266-.73-.2-.264.067-.441.256-.53.567-.066.2-.232.488-.497.866-.133.333.022.645.464.933.553.378.84.655.862.833.022.155-.165.5-.563 1.033-1.702 2.133-2.94 3.799-3.714 4.998-.375.578-.895 1.166-1.558 1.766-.376.355-.962.855-1.757 1.5-.619.51-1.348.644-2.189.4-.994-.334-1.834-.79-2.52-1.367-.883-.8-1.127-1.788-.729-2.965.244-.822.663-1.688 1.26-2.6.199-.266.774-1.01 1.724-2.232 1.15-1.332 1.99-2.343 2.52-3.032.31-.355.475-.655.497-.9.067-.51.232-.8.498-.866.243-.088.53.012.862.3.265.2.486.255.663.167.11-.045.254-.189.43-.433.487-.6.719-1.045.697-1.333 0-.245-.254-.69-.762-1.333-1.79-2.377-3.659-5.764-5.604-10.163-.862-1.999-1.58-4.942-2.155-8.83-.044-.31-.022-.721.066-1.232.133-.755.2-1.166.2-1.233.308-4.31 1.922-8.075 4.84-11.295 1.238-1.445 2.896-2.91 4.973-4.399 3.073-2.243 6.046-3.831 8.92-4.764 4.774-1.644 9.67-1.81 14.687-.5 4.178 1.044 7.405 3.098 9.682 6.164 2.298 3.021 4.078 6.02 5.338 8.996.376.89.707 1.755.994 2.6zM13.833 45.787c-.287.4-.452.755-.497 1.066-.044.333.055.578.299.733.132.089.364.189.696.3.243.067.542-.067.895-.4.332-.288.52-.6.564-.933.022-.244-.1-.521-.365-.833-.31-.289-.597-.455-.862-.5-.177-.021-.42.167-.73.567zm-.165 3.265c-.73-.644-1.305-1.066-1.724-1.266-.31-.155-.498-.233-.564-.233-.177-.045-.354.033-.53.233-1.393 1.466-2.388 2.754-2.985 3.865.2-.044.498-.211.896-.5.31-.221.585-.288.829-.2.066.267 0 .489-.2.667-.088.089-.253.21-.497.366-.906.778-1.746 1.455-2.52 2.033-.442.356-.729.866-.862 1.533-.021.178.044.3.2.366.066.045.187.1.364.167-.023.155-.122.366-.298.633-.133.288-.045.533.265.733.265.2.53.233.796.1.043-.022.243-.178.596-.467.774-.777 1.514-1.366 2.222-1.766.177-.088.298-.144.365-.166.177-.045.32 0 .43.133.155.267.034.5-.364.7-1.15.666-2.045 1.366-2.686 2.099.64.2 1.238.2 1.79 0 .399-.178.84-.488 1.327-.933.641-.622 1.304-1.388 1.99-2.299.11-.178.684-1.022 1.723-2.532.31-.378.542-.678.697-.9.265-.377.42-.766.464-1.166-.487-.177-1.061-.578-1.724-1.2zm-2.951 3.132c-.221.623-.83 1.345-1.824 2.166-.928.755-1.823 1.311-2.685 1.666.486-.6 1.149-1.244 1.989-1.932.22-.2 1.061-.833 2.52-1.9z" transform="translate(-1096 -343) translate(247 305) translate(826 15) translate(23 23)"/>
                        </g>
                    </g>
                </g>
            </g>
        </g>
    </g>
</svg>
