<svg xmlns="http://www.w3.org/2000/svg" width="48" height="48" viewBox="0 0 48 48">
    <g fill="none" fill-rule="evenodd">
        <g>
            <path fill="#FFF" fill-rule="nonzero" d="M34.37 10.818c-.135-.112-.316-.219-.545-.319-.27-.1-.464-.188-.585-.263-.86-.451-1.888-.802-3.085-1.052-.618-.125-1.707-.288-3.266-.489-.498-.05-1.25.038-2.259.263-.269.063-.443.094-.524.094-.242 0-.39-.075-.444-.225-.04-.138.04-.27.242-.395.498-.275.982-.413 1.452-.413.766-.025 1.27-.025 1.512 0 1.197.163 2.09.288 2.682.376 1.022.175 1.896.375 2.621.6 1.546.477 2.857 1.31 3.932 2.5.82.914 1.607 2.18 2.36 3.795.094.2.201.507.322.92.134.414.249.715.343.903.457 1.002.733 2.116.827 3.344.08.94.053 2.08-.081 3.42-.04.413-.202.883-.484 1.409-.054.125-.323.57-.806 1.334-.767 1.215-1.91 2.367-3.428 3.457-.484.35-1.09.72-1.815 1.108-.43.226-1.062.552-1.895.977-.511.289-1.11.489-1.795.602-.47.075-1.116.138-1.936.188-1.465.087-3.044.056-4.738-.094-.686-.05-1.358-.257-2.017-.62-1.142-.664-2.076-1.31-2.802-1.936-.887-.789-1.593-1.64-2.117-2.555-.175-.288-.505-.77-.988-1.447-.43-.6-.747-1.096-.948-1.484-.955-1.942-1.29-3.97-1.008-6.088.43-2.968 2.097-5.549 5-7.74 1.049-.777 2.494-1.522 4.335-2.236.162-.076.263-.113.303-.113.175-.038.302-.056.383-.056.134.025.215.1.242.225.054.138.02.244-.1.32-.014 0-.135.037-.364.112-2.702.814-4.88 2.205-6.533 4.171-1.277 1.528-2.117 3.263-2.52 5.205-.027.238 0 .407.08.507.135-.025.296-.119.484-.282.189-.2.356-.326.504-.376.054.176.014.326-.12.451-.04.026-.155.1-.343.226-.565.338-.787.864-.666 1.578.04.2.08.526.121.977.283-.075.645-.326 1.09-.751.402-.401.792-.64 1.169-.714-.121.25-.31.482-.565.695-.148.125-.376.288-.686.488-.605.464-.92.802-.947 1.015-.027.213.181.676.625 1.39l1.734-1.578c.134.113.181.22.141.32 0 .024-.06.093-.181.206l-1.27 1.127c-.35.289-.39.576-.122.865.121.138.343.432.666.883.148 0 .295-.088.443-.263.162-.176.316-.257.464-.245.094.076.114.144.06.207l-.16.207c-.283.3-.424.5-.424.601-.014.113.1.326.343.639l1.21 1.616c.188-.075.436-.263.745-.564.296-.275.565-.457.807-.545-.027.226-.148.42-.363.583l-.464.375c-.174.176-.269.339-.282.489-.013.15.06.313.222.488l.14.15c.431.477.72.715.868.715.148.012.457-.195.927-.62.242-.238.424-.414.545-.526.229-.213.464-.345.706-.395.067.125.074.238.02.338l-.202.188c-.202.163-.504.401-.907.714-.094.088-.256.207-.484.357-.134.163-.074.345.181.545.323.288.592.438.807.45.228.014.477-.1.746-.337l1.956-1.748.181-.169c.094-.05.175-.037.242.038.108.087.135.163.08.225-.04.025-.113.075-.22.15-.149.138-.599.527-1.352 1.165-.054.038-.127.1-.222.188-.027.026-.188.17-.484.433-.188.15-.221.325-.1.526.16.225.483.357.967.394.471.05.807-.019 1.009-.207.94-.876 1.801-1.609 2.58-2.198.122-.075.222-.094.303-.056-.08.238-.262.47-.544.695-.148.138-.384.326-.706.564-.282.275-.713.714-1.29 1.315.954.213 1.814.257 2.58.131-.053-.237-.026-.438.081-.6.403-.477 1.183-1.216 2.339-2.218.108.138.148.257.121.357-.013.038-.08.106-.202.207l-1.734 1.56c-.282.262-.436.513-.464.75 1.345.151 2.447-.319 3.307-1.408.47-.602.981-.996 1.533-1.184-.228.338-.565.72-1.008 1.146-.673.639-1.056 1.009-1.15 1.109.552.025 1.002-.038 1.351-.188.323-.138.632-.401.928-.79.282-.375.524-.657.726-.845.322-.275.699-.476 1.129-.601-.094.225-.31.47-.645.733-.336.263-.538.507-.605.732 3.427-1.628 5.679-3.864 6.754-6.707.202-.552.303-1.347.303-2.386-.014-.965-.06-1.748-.141-2.349-.121-.864-.336-1.635-.645-2.311-.014-.05-.222-.608-.626-1.672-.269-.664-.53-1.196-.786-1.597-.82-1.278-1.714-2.336-2.682-3.176zm-4.034-2.395c-2.468-.601-5.018-.561-7.649.12-2.07.52-3.969 1.335-5.698 2.444-1.006.614-2.048 1.442-3.127 2.484-1.167 1.108-1.973 2.07-2.416 2.884-1.345 2.39-1.752 4.835-1.22 7.332.178.895.496 1.87.954 2.925.28.68.724 1.622 1.33 2.824 1.537 2.925 3.843 5.008 6.918 6.25 1.005.454 1.73.761 2.173.922.768.307 1.352.433 1.751.38 1.966-.107 3.629-.267 4.989-.48 1.537-.241 2.956-.588 4.257-1.042 2.808-1.015 5.07-2.658 6.785-4.928 1.064-1.402 1.803-3.079 2.217-5.028.28-1.322.414-2.765.399-4.327 0-.721-.133-1.482-.4-2.284-.014-.067-.029-.12-.044-.16-.221-.614-.561-1.382-1.02-2.304-1.079-2.136-2.46-3.953-4.146-5.448-.783-.708-1.81-1.316-3.082-1.823-.635-.254-1.626-.501-2.97-.741zm11.205 7.445c.332.946.484 2.216.456 3.81-.097 2.306-.456 4.205-1.077 5.695-.013.039-.034.09-.062.155-1.09 2.436-2.684 4.348-4.782 5.734-2.65 1.763-5.907 2.832-9.771 3.207-2.278.233-4.148-.058-5.61-.875-.153-.09-.518-.259-1.098-.505-.469-.181-.828-.37-1.076-.564-.152-.116-.304-.155-.456-.116-.165.039-.276.149-.331.33-.041.117-.145.285-.31.506-.083.194.013.375.29.544.344.22.524.382.538.486.013.09-.104.291-.352.602-1.063 1.244-1.836 2.216-2.319 2.916-.234.337-.559.68-.973 1.03-.235.207-.6.499-1.097.875-.387.298-.842.375-1.367.233-.62-.195-1.145-.46-1.573-.797-.552-.467-.704-1.043-.455-1.73.152-.48.414-.985.786-1.516.125-.156.483-.59 1.077-1.302.717-.778 1.242-1.367 1.573-1.77.194-.206.297-.381.31-.524.042-.298.146-.466.311-.505.152-.052.331.006.538.175.166.116.304.149.415.097.069-.026.158-.11.269-.253.303-.35.448-.609.434-.777 0-.143-.158-.402-.476-.778-1.118-1.386-2.284-3.362-3.498-5.928-.539-1.166-.987-2.883-1.346-5.15-.027-.182-.014-.422.041-.72.083-.44.125-.68.125-.719.193-2.514 1.2-4.71 3.022-6.589.773-.842 1.808-1.697 3.105-2.565 1.919-1.31 3.775-2.236 5.57-2.78 2.98-.959 6.037-1.056 9.17-.291 2.609.609 4.624 1.807 6.045 3.595 1.435 1.763 2.547 3.512 3.333 5.248.235.519.442 1.024.621 1.516zm-25.13 17.555c-.232.298-.367.563-.403.795-.035.248.045.43.242.546.108.066.296.14.565.224.197.05.44-.05.726-.298.269-.215.42-.447.457-.696.018-.182-.08-.388-.296-.62-.25-.216-.484-.34-.699-.373-.144-.016-.34.124-.591.422zm-.283 2.425c-.37-.361-.66-.598-.872-.71-.157-.087-.252-.131-.285-.131-.09-.025-.18.019-.269.13-.704.824-1.207 1.546-1.51 2.17.101-.025.252-.119.454-.28.156-.125.296-.163.419-.113.034.15 0 .274-.1.374-.045.05-.13.118-.252.206-.459.436-.883.816-1.275 1.14-.224.2-.369.487-.436.86-.011.1.022.169.1.206.034.025.096.056.185.094-.011.087-.062.206-.15.355-.068.162-.023.3.133.412.135.112.269.13.403.056.022-.013.123-.1.302-.262.391-.437.766-.767 1.124-.991.09-.05.15-.081.184-.094.09-.025.162 0 .218.075.078.15.017.28-.184.393-.582.374-1.035.766-1.359 1.178.324.112.626.112.906 0 .201-.1.425-.274.67-.524.325-.349.66-.779 1.007-1.29.056-.1.346-.573.872-1.421.157-.212.274-.38.352-.505.134-.212.213-.43.235-.655-.246-.099-.537-.324-.872-.673zM15 37c-.098.325-.368.702-.809 1.13-.412.395-.809.685-1.191.87.216-.313.51-.65.882-1.009.098-.104.47-.434 1.118-.991z"/>
        </g>
    </g>
</svg>
