<svg width="104" height="94" viewBox="0 0 104 94" fill="none" xmlns="http://www.w3.org/2000/svg">
<path fill-rule="evenodd" clip-rule="evenodd" d="M104 0V94H0V0H104ZM80.3636 8H26.5871C23.3138 8 20.3707 9.9941 19.1572 13.0341L7.17375 43.0544C5.87975 46.2961 6.83677 50.0025 9.5384 52.2125L49.4035 84.8225C52.3689 87.2482 56.6378 87.2311 59.5836 84.7817L97.5689 53.197C100.215 50.9964 101.158 47.3498 99.9087 44.1425L87.8183 13.0969C86.6215 10.0238 83.6615 8 80.3636 8Z" fill="#D12C27"/>
<path fill-rule="evenodd" clip-rule="evenodd" d="M20.7229 4.97515C40.8211 -0.258828 49.2104 -2.66205 81.519 4.34096C86.9987 5.5287 88.3404 13.9081 91.0041 18.83C93.6883 23.79 102.706 40.768 103.879 45.1307C105.04 49.4485 97.5434 57.1135 95.0017 59.2306C91.8683 61.8406 88.157 63.7166 85.083 66.3961C77.875 72.679 72.2703 80.2852 63.873 85.248C61.7717 86.4899 58.9962 86.544 57.1368 88.1236C55.4036 89.5961 55.8329 94.4801 53.6163 93.9616C49.8315 93.0764 48.5201 88.0848 45.6747 85.4426C31.1943 71.9964 36.4157 82.7332 20.2421 62.723C13.9999 55 14 59 3.27374 51.8149C2.65945 51.4034 -0.823579 48.0053 0.18351 46.135C1.11597 44.4033 3.02393 43.3519 4.04891 41.6731C10.1275 31.7168 16.0529 11.8386 17.5264 8.91929C18.5088 6.9731 19.5743 5.65838 20.7229 4.97515ZM79.927 8.33505H26.8089C23.5377 8.33505 20.596 10.3267 19.3811 13.3639L7.57417 42.8812C6.27599 46.1267 7.23518 49.8392 9.94297 52.0496L49.292 84.1713C52.2552 86.5902 56.516 86.5731 59.4596 84.1305L96.9498 53.0217C99.6024 50.8206 100.547 47.1679 99.2938 43.9568L87.3796 13.4267C86.1814 10.3564 83.2229 8.33505 79.927 8.33505Z" fill="#25001A"/>
</svg>
