<?xml version="1.0" encoding="UTF-8"?>
<svg width="74px" height="60px" viewBox="0 0 74 60" version="1.1" xmlns="http://www.w3.org/2000/svg" xmlns:xlink="http://www.w3.org/1999/xlink">
    <!-- Generator: Sketch 58 (84663) - https://sketch.com -->
    <title>Nav Star</title>
    <desc>Created with Sketch.</desc>
    <g id="Ehkidshealth-Member" stroke="none" stroke-width="1" fill="none" fill-rule="evenodd">
        <g id="MemberView_ProfessionalDetails" transform="translate(-268.000000, -94.000000)">
            <g id="Nav-Star" transform="translate(268.000000, 94.000000)">
                <path d="M61.6246179,57.3850264 C58.8226225,56.7105613 55.9850687,56.1433974 53.262724,55.2417879 C52.8786941,55.1149773 53.4305592,52.8379605 52.8929175,52.4672834 C51.7934543,51.7064198 49.7296495,51.9837309 48.9815026,51.0918761 C46.533668,48.1710516 44.2309114,49.3011989 41.8982857,50.8814541 C40.0848116,52.1105415 38.2101771,53.3814345 36.7849997,54.9923473 C35.0326858,56.9739371 33.4695422,57.506263 31.4100045,55.641729 C30.7343964,57.4142904 30.2778276,59.3094819 27.9864497,59.8919745 C26.3920147,60.2974897 24.9810607,59.5338391 24.7819341,58.0622787 C24.1845544,53.6406298 25.3466002,49.4475188 26.6494569,45.326871 C28.3477222,39.9562329 28.3505668,38.5041818 24.1717534,36.1853594 C22.147774,35.0621797 20.3129648,34.4629648 19.899066,31.9239657 C19.8450173,31.5909137 18.1510191,31.4891865 17.2080125,31.3233572 C14.7744013,30.8955456 14.9948628,28.4861442 14.1955119,27.0215514 C13.3648696,25.5026112 15.3860043,25.6266348 16.4186179,25.1249664 C17.710096,24.495094 18.5691849,23.0207465 19.8549737,22.3713648 C21.2175684,21.6829643 23.8147479,20.786929 24.2229574,21.2830232 C26.0364315,23.4875768 26.55985,20.3967425 27.8712407,20.7353686 C29.0617332,21.0419437 30.4925999,21.0781753 31.647534,20.7144658 C32.6047639,20.4120713 33.2064107,18.6130329 34.3855245,20.4301871 C35.2773271,19.79056 37.0282186,18.9558396 36.9300776,18.5405697 C35.9529351,14.4157413 38.4391726,13.2075568 41.7475185,12.3853782 C42.3847235,12.22791 42.9394333,10.8608639 43.3661331,10.9375076 C45.4555398,11.3151524 43.451473,5.33693826 47.1651837,8.64794917 C47.3756889,8.2340728 47.8265684,7.76863609 47.7469178,7.41886178 C47.5989952,6.7625124 46.9888145,6.20510315 46.8536928,5.55154082 C46.6844353,4.7307557 46.8010665,3.85283614 46.7939549,3 C47.3344413,3.37485772 48.025695,3.64241415 48.3912345,4.1399019 C50.7793311,7.40074598 53.5386565,10.5110896 55.2426111,14.0966245 C56.0391174,15.7716393 56.4402152,16.5032389 58.1598154,16.2816688 C59.8395903,16.0642792 61.4994526,15.7089308 63.1806498,15.512444 C65.6242174,15.2253783 68.1332123,14.6247698 70.5013962,14.9522477 C71.7502043,15.1236511 73.1753817,16.7958788 73.7756061,18.1141517 C74.660297,20.0595099 72.7259245,22.204142 71.5027184,22.1330723 C63.8448792,21.6843579 65.797742,29.8239264 61.6032829,32.3071845 C61.8962834,34.5187057 61.8991281,36.8180189 62.5462894,38.9264193 C63.7666509,42.9021408 65.3582412,46.7677739 66.7933749,50.6807868 C67.1119774,51.5503452 67.5799249,52.4003943 67.7093571,53.2964296 C68.1431686,56.3161942 67.7235805,56.7858115 64.8191771,56.8624553 C63.8007869,56.8875387 62.779552,56.8652423 61.7611618,56.8652423 C61.7142248,57.0380392 61.6701325,57.2108361 61.6246179,57.3850264" id="Fill-103" fill="#EC2227"></path>
                <path d="M41.6767168,0.641825419 C44.6466365,3.02223979 45.3848575,6.69041931 47.3780541,9.6255204 C49.0475691,12.0867685 49.4124206,15.8538997 51.5759759,17.4050713 C53.4016531,18.7151355 56.9919623,17.858019 59.7730678,17.6252736 C62.6436116,17.3869534 65.5993348,18.5200195 68.4230299,16.3124221 C69.8000959,15.2351034 72.632309,18.5158385 71.8727932,20.6537516 C71.0934023,22.8488058 70.3466634,25.8326859 68.1107057,26.44312 C65.5709416,27.1371753 64.8156848,29.6235097 62.8253275,30.2548491 C58.8602292,31.5119532 59.0376862,34.7104608 59.8568275,37.1326857 C61.3645018,41.5869037 61.5135657,46.4996442 63.6260134,50.569205 C65.788149,54.7349302 59.8270147,54.8338818 60.8136754,57.901383 C59.1569373,57.4707343 58.3179208,59.4051694 55.954194,58.7180826 C52.0089709,57.5710796 49.0418905,55.3676633 46.1230784,53.0402089 C43.2823474,50.7740768 40.2229894,49.0054902 37.1054255,47.2104236 C36.0846931,46.6222885 35.8689054,46.4857073 34.8467533,47.213211 C32.5540094,48.8480038 32.3197662,52.3809958 29.0843709,53.0360279 C29.1553537,57.3090668 24.0176198,56.3780851 22.6079017,59.2685882 C22.1053436,60.301309 20.2711484,60.0490519 19.8807431,59.6685759 C18.1459239,57.9752483 14.8878141,59.1306134 14.0573155,57.4609785 C13.1984238,55.7342025 13.2083614,53.1126806 14.2631656,51.0388769 C16.0277976,47.5755692 15.242728,43.586842 16.756081,40.0510626 C17.1124145,39.2190325 17.3977653,37.7918989 15.5238198,37.1466226 C10.7708126,35.5048614 8.002484,31.198374 4.10127018,28.3747678 C2.51977375,27.2277648 0.81334762,25.7323406 0.137591515,24.0236825 C-0.729818108,21.8258409 2.77531178,21.4105227 3.08905568,19.3255696 C3.51495239,16.5103254 5.60468555,16.0434409 8.07772575,16.1563294 C9.85655433,16.2385568 11.6424812,16.1730536 13.9778148,16.1730536 C18.0323514,16.3556264 22.8407252,15.3020003 26.7859484,19.0133841 C27.6760725,19.8509889 28.6357597,18.9423061 29.1880058,17.3939219 C30.9867095,12.3390255 34.3356773,7.96982235 36.5020719,3.12119144 C37.3212132,1.28431431 38.6358144,1.6062556 39.4421788,0.689210716 C40.2897132,-0.276613147 40.6687613,-0.166512014 41.6767168,0.641825419 Z M38.4725539,13.7564034 C36.0293265,16.1298494 35.2485159,19.4454265 33.7124484,22.3303549 C32.9941027,23.6794422 32.1905775,25.2807866 30.6800639,25.1037885 C25.286792,24.4752365 19.6124282,26.9267288 14.4463012,23.7170717 C14.0970659,23.4996568 13.3702021,23.5581916 12.9769575,23.7714255 C11.9420285,24.335868 12.7157409,24.8264452 13.1544145,25.336534 C15.106441,27.6110283 18.2126477,28.7259764 19.6024906,31.596968 C19.8793235,32.1669853 20.4429268,32.9265437 21.398355,32.699373 C24.6266521,31.9272714 24.6564648,33.8477697 24.5159189,36.1166892 C24.3540782,38.778628 25.0795222,41.656588 22.045718,43.3973008 C20.9426456,44.0300339 21.493472,45.207698 21.4565609,46.1400734 C21.4125516,47.2592026 21.5374813,47.8306136 23.035218,47.0222761 C24.7615194,46.0899007 26.4651062,45.2759885 27.7910646,43.7763832 C28.9580216,42.4565633 30.2257741,41.1994592 31.5716077,40.0552437 C35.9909958,36.2978683 37.99413,36.3048367 43.1048904,39.6733739 C45.6773065,41.3708825 48.3505182,42.9276289 51.0492837,44.4300216 C51.5660383,44.7185144 52.6251015,44.7240892 53.0524178,44.388211 C54.1157399,43.556181 52.6066459,43.4000882 52.42493,42.8495825 C50.0044171,35.5201919 50.1165699,35.5703646 53.4499214,28.289753 C53.9439616,27.2110406 55.3820728,26.6256928 55.1052399,25.1846223 C55.2841166,24.2675774 54.709156,23.8243855 53.9098899,23.7087096 C53.1603117,23.6013959 52.3709831,23.7714255 51.6199852,23.6710801 C49.2150885,23.3477452 46.2380705,24.8794052 44.5032513,22.7400984 C42.9473087,20.8182065 42.3226602,18.159055 41.354455,15.7981523 C41.176998,15.3675035 41.4694471,14.7570694 41.304767,14.3152712 C40.6999937,12.6846595 39.5472333,12.7139269 38.4725539,13.7564034 Z" id="Fill-96" fill="#000000"></path>
            </g>
        </g>
    </g>
</svg>