<svg xmlns="http://www.w3.org/2000/svg" width="180" height="48" viewBox="0 0 180 48">
    <g fill="none" fill-rule="evenodd">
        <g>
            <g>
                <g>
                    <g>
                        <g>
                            <path fill="#FFF" stroke="#D6D6D7" d="M-0.5 -0.5H180.5V48.5H-0.5z" transform="translate(-703 -377) translate(247 305) translate(96 72) translate(360)"/>
                            <g>
                                <g>
                                    <g>
                                        <g fill="#000" fill-rule="nonzero">
                                            <path d="M.08 4.23c.154-.003.262-.001.37-.008.55-.036 1.601-.569 2.151-.611.47-.036.937-.1 1.406-.122.72-.035 1.443-.06 2.164-.06.231.001.3-.064.29-.281-.047-.898-.082-1.796-.132-2.693-.012-.211.021-.311.27-.3.682.032 1.366.047 2.05.052.72.005 1.44-.025 2.16-.007.342.009.682.12 1.025.135.495.024.993.009 1.49-.001.232-.005.307.025.228.301-.087.38-.144.766-.17 1.154-.052.438-.095.876-.14 1.314-.024.078-.005.164.051.224.057.06.141.083.22.062.868-.005 1.735-.007 2.602.017.496.014 1.49.581 1.986.625.017.002.034.01.052.012.513.053.544.051.579.57.035.52-.008 1.046-.003 1.57.003.255.04.509.055.764.046.752.1 1.503.13 2.256.027.71.031 1.421.04 2.132.008.71.008 1.421.014 2.132.005.674-.49 1.848-.48 2.522.005.247-.088.318-.32.259-.123-.02-.248-.026-.372-.019-.469-.018-.94-.02-1.407-.057-1.027-.104-2.063-.097-3.088.021-.427.022-.856.015-1.282-.022-.603-.003-1.206-.004-1.808.012-.472.013-.942.073-1.414.079-.702.007-1.404-.035-2.106-.02-.905.021-1.812-.072-2.715.133-.37.084-.779 0-1.17-.005-.202-.003-.405-.01-.607 0-.362.019-1.223.051-1.584.074-.318.02-.496-.15-.442-.442.187-1.001.086-2.505.023-3.506C.114 11.19.039 9.886.08 8.576c.033-1.049-.037-2.1-.059-3.15-.007-.329-.013-.659-.008-.989.011-.072.033-.142.066-.207zm14.292 1.04c-.674.045-1.361 0-2.06.36l.141-.228-.244-.054c.905-.076 1.533-.694 2.27-1.11-.28-.037-.562-.016-.832.06-.24.086-.433.3-.667.412-.565.27-1.023.749-1.705.799l2.178-1.29c-.085-.03-.172-.055-.26-.071-.097-.009-.196.013-.292.005-.281-.024-.543-.128-.814.13-.21.2-.537.271-.8.42-.342.194-.674.408-1.01.613l.014.05.825.02.007.084c-.75-.03-1.468.055-2.05.62L9.037 6l.516-.432c-.672.038-1.264.031-1.8.332l2.415-1.578c-.298-.008-.606-.026-.913-.018-.177-.004-.353.025-.52.085-.381.163-.752.354-1.122.544-.25.128-.49.274-.736.413l-.068-.113 1.382-.875c-.067-.017-.135-.03-.204-.04-.48-.03-.962-.032-1.438-.093-.93-.119-1.85 0-2.773.064-.071-.007-.142.018-.193.069-.05.05-.076.121-.07.193-.03.658-.091 1.315-.118 1.974-.021.497-.01.995-.01 1.492.001.54-.001 1.081.013 1.622.008.302.053.603.071.905.049.808.076 1.618.143 2.425.055.665.173 1.325.227 1.99.047.567.08.58.656.57 1.122-.022 2.245.002 3.367.009.232.001.465.028.695.013.832-.053 1.662-.146 2.494-.173.809-.026 1.62.025 2.43.017.648-.006 1.296-.049 1.944-.077.02-.005.04-.015.056-.03l.017-.686-.486.182-.042-.096c.15-.085.302-.164.447-.257.069-.033.123-.09.152-.161.023-.244.02-.49.027-.81l-1.056.65-.053-.081c.197-.145.4-.281.587-.436.197-.163.488-.248.532-.547.02-.217.027-.434.021-.652L13.3 13.645c-.017-.044-.003-.093.033-.123.423-.26.842-.526 1.273-.774.144-.053.236-.194.226-.347-.012-.258.008-.516.007-.774-.001-.135-.019-.27-.03-.425l-.836.532-.046-.065c.211-.173.414-.356.635-.515.166-.09.265-.268.254-.456-.015-.276.01-.553.01-.83-.008-.083-.023-.164-.046-.244l-.813.45-.051-.08c.153-.107.308-.212.46-.32.139-.098.373-.181.394-.301.041-.368.057-.738.046-1.108L13.107 9.29c-.006-.055.016-.11.058-.147.375-.25.755-.494 1.128-.747.174-.118.42-.221.483-.388.087-.23.033-.513.04-.823l-.77.39-.04-.068c.107-.065.21-.139.306-.22.171-.162.5-.137.54-.459.023-.08.057-.157.102-.227l.217.152c.5-.342.525-.391.399-.795l-.827.542-.064-.091c.153-.115.3-.237.459-.342.483-.32.658-.832.418-1.3-.102.087-.304.1-.127.322-.791.002-1.265.633-1.936.84l.876-.662c.34-.209.68-.415 1.018-.628.161-.062.255-.232.22-.402-.583-.041-1.58.379-2.327 1 .34-.042.61-.072.877-.11.122-.017.22-.019.215.143zM3.477 15.546c.02-.278.025-.558.017-.836-.1-1.153-.207-2.303-.255-3.462-.054-1.308-.15-2.613-.128-3.924.015-.89.023-1.78.054-2.67.02-.078-.003-.161-.058-.22-.056-.059-.137-.085-.217-.07-.08.002-.16.01-.24.022-.437.038-.873.084-1.31.108-.353.02-.512.13-.519.419-.01.445-.023.89-.017 1.334.016 1.147.033 2.295.068 3.441.034 1.1.07 2.2.147 3.297.07.777.08 1.559.027 2.337-.019.22.06.313.291.291.416-.038.833-.07 1.25-.085.289-.011.578.01.89.018zm14.434-9.748l-.635 5.545-.115-.01.143-1.785c-.28.129-.547.287-.795.472-.098.09-.053.336-.074.51-.004.026-.024.05-.025.076l-.028 1.082c.167-.095.337-.203.518-.288.065-.005.128.024.166.077.018.064.002.133-.043.183-.246.183-.508.343-.784.479-.376.16-.386.136-.338.532.012.103.013.208.022.353.298-.156.562-.315.843-.431.21-.067.341-.274.314-.492.016-.207.048-.413.096-.615l.092.014c-.01.13-.015.258-.028.387-.018.179-.104.38.162.464 0 .066-.017.13-.05.188-.206.056-.232.213-.254.383-.012.098-.035.195-.053.293l-.05-.008.012-.508c-.41.23-.78.432-1.143.644-.047.04-.071.1-.066.162.03.207.076.411.123.647.172-.087.303-.16.44-.222.42-.187.842-.376 1.269-.548.084-.005.168.01.245.045-.048.062-.106.115-.171.158-.377.16-.752.326-1.14.454-.529.175-.775.504-.72 1.073.018.185.043.275.249.278.595.007 1.19.026 1.786.048.057.013.116-.004.158-.045.041-.041.058-.1.045-.158.031-.906.084-1.813.1-2.72.01-.663-.034-1.328-.034-1.992 0-.647.065-1.296.027-1.94-.056-.953-.177-1.903-.264-2.785zm-1.123-.08l.377.125c-.265.168-.465.248-.468.552-.004.532-.078 1.065-.12 1.597 0 .083.003.166.013.248.248.047.39-.313.71-.082-.132.11-.28.202-.437.272-.106.016-.202.075-.264.163-.062.088-.085.198-.064.304-.005.168-.02.336-.044.502-.008.1-.006.2-.01.385.263-.183.453-.32.649-.45.147-.085.241-.238.252-.408.112-1.123.241-2.245.358-3.368.04-.385.062-.773.092-1.163-.155.017-.311.02-.466.009-.278-.047-.55-.132-.827-.184-.212-.04-.589.195-.607.404-.012.309-.006.618.016.927.381-.282.71-.53 1.043-.77.106-.07.217-.133.332-.186.03.026.053.058.067.095-.059.104-.14.194-.236.264-.341.169-.389.453-.366.764zM8.93 3.477l.002.012 2.37-.06c.086.003.17-.006.233-.026.063-.02.099-.047.099-.076.028-.073.036-.147.025-.221-.037-.118-.078-.123-.424-.096-.034.002-.07.004-.106.003-.952-.01-1.904-.018-2.856-.033-.267-.004-.329.008-.315.1.012.08 0 .16 0 .24-.001.027.005.054.006.081-.008.02.013.04.056.054.042.013.102.02.16.016.25 0 .5.004.75.006zm-.156-2.301c-.392-.02-.748.13-1.052-.12-.035-.004-.07 0-.103.011-.125.008-.25.008-.373 0-.165-.017-.327-.052-.49-.08-.002.17-.008.341-.006.512.01.819.022 1.638.034 2.465.193.005.369.003.544.015.252.016.327-.12.32-.344-.01-.329-.017-.658-.024-.988-.007-.342-.013-.66.372-.86.278-.178.539-.383.778-.611zm2.665.984c.269.068.559-.079.569.28.217-.224.416-.437.625-.639.057-.027.12-.04.184-.038-.018.068-.033.137-.056.203-.015.022-.034.04-.058.054-.454.39-.92.772-.724 1.48-.005.035-.008.07-.01.104.028.087.083.162.155.216.148.016.297.021.446.015.345.023.33.02.349-.328.026-.509-.044-1.026.132-1.525.04-.146.058-.298.053-.45.01-.355-.02-.385-.365-.385-.29-.02-.583-.013-.872.017-.239.065-.47.155-.69.269l.046.14c.311-.048.618-.118.92-.21.327-.123.347-.155.532-.026l-.307.117.057.227c-.462-.117-.648.244-.986.479zM7.92 2.045l.018.069c.386.022.772.047 1.158.067.15-.02.303-.015.451.012.357.144.504-.072.709-.381L8.86 2.02l.85-.789c-.394-.132-.83-.024-1.115.279-.213.192-.439.37-.675.535zm.75 3.443c1.106.138 1.82-.55 2.614-1.037.07-.066.126-.144.167-.23l.331-.026-.025-.109c-.251.08-.5.166-.755.234-.19.027-.379.066-.564.117-.196.101-.385.216-.566.344-.387.23-.776.457-1.201.707zm6.857 5.275l-.1-.055c-.149.142-.4.268-.425.428-.046.451-.064.905-.054 1.358.577-.107.77-.436.65-.98-.04-.249-.063-.5-.071-.75zm.346 1.244c.114-.012.219-.07.29-.159.072-.09.105-.204.091-.318-.003-.132.002-.265.01-.397.02-.314.044-.627.071-1.007-.154.083-.302.178-.44.285-.076.073-.122.172-.127.277.022.433.067.866.105 1.32zm.492-3.365c-.236.19-.54.313-.598.508-.098.337-.042.718-.053 1.145.187-.131.302-.2.402-.285.094-.058.168-.143.211-.245.033-.341.027-.686.038-1.123zm.076-1.412c-.354.106-.616.276-.572.7-.004.053-.012.106-.024.158-.008.219-.012.438-.018.693.186-.104.331-.172.462-.262.063-.042.106-.108.12-.183.02-.361.023-.723.032-1.106zm-.856.588l-.075-.043c-.167.15-.433.274-.479.454-.054.345-.07.695-.047 1.044l.09.048c.162-.167.413-.31.466-.506.054-.33.069-.664.045-.997zm-.064 1.41c-.127.056-.25.12-.368.193-.08.047-.138.12-.166.208-.006.376.014.752.026 1.185.174-.156.424-.273.46-.435.05-.382.066-.767.048-1.15zm-4.277-8.122c-.64-.047-1.225-.084-1.609.512.302.186 1.236-.09 1.61-.512zm4.369 5.673c-.535.083-.737.469-.558 1.065.568-.344.67-.54.558-1.065zm-5.338-4.661c.5.24 1.103.061 1.391-.414-.508-.011-.998-.01-1.391.414zm5.645 5.108c.563-.275.63-.432.569-.989-.611.363-.662.453-.569.989zm.011-.925c.174-.108.33-.201.48-.3.103-.067.192-.474.113-.494-.118-.001-.235.028-.338.084-.047.026-.09.057-.131.092-.24.148-.225.35-.124.618z" transform="translate(-703 -377) translate(247 305) translate(96 72) translate(360) translate(8 12) translate(2.5 4)"/>
                                        </g>
                                    </g>
                                    <g font-family="Montserrat-Medium, Montserrat" font-size="14" font-weight="400">
                                        <text fill="#525252" transform="translate(-703 -377) translate(247 305) translate(96 72) translate(360) translate(8 12) translate(32 3)">
                                            <tspan x="0" y="14">Profession</tspan>
                                        </text>
                                    </g>
                                </g>
                            </g>
                        </g>
                    </g>
                </g>
            </g>
        </g>
    </g>
</svg>
